<?xml version="1.0" encoding="UTF-8" standalone="no"?>
<svg width="160px" height="120px" viewBox="0 0 160 120" version="1.1" xmlns="http://www.w3.org/2000/svg" xmlns:xlink="http://www.w3.org/1999/xlink">
    <!-- Generator: Sketch 3.8.3 (29802) - http://www.bohemiancoding.com/sketch -->
    <title>Blog Logo</title>
    <desc>Created with Sketch.</desc>
    <defs></defs>
    <g id="Page-1" stroke="none" stroke-width="1" fill="none" fill-rule="evenodd">
        <g id="Blog-Logo">
            <path d="M17.83,11.01 L17.56,7.86 C17.5399999,7.5799986 17.4850005,7.34500095 17.395,7.155 C17.3049995,6.96499905 17.1100015,6.81500055 16.81,6.705 C16.5099985,6.59499945 16.065003,6.5100003 15.475,6.45 C14.8849971,6.3899997 14.0600053,6.36 13,6.36 L12.79,6.36 L10.72,22.14 C10.6599997,22.4400015 10.8099982,22.6199997 11.17,22.68 L13.39,22.98 L13.48,24 L5.17,24 L5.29,22.98 L7.63,22.68 C7.830001,22.6599999 7.9699996,22.6000005 8.05,22.5 C8.1300004,22.3999995 8.1899998,22.2800007 8.23,22.14 L10.3,6.36 L10.09,6.36 C9.0699949,6.36 8.26500295,6.37499985 7.675,6.405 C7.08499705,6.43500015 6.62500165,6.49499955 6.295,6.585 C5.96499835,6.67500045 5.7200008,6.80499915 5.56,6.975 C5.3999992,7.14500085 5.2600006,7.3699986 5.14,7.65 L3.91,11.01 L2.5,11.01 L3.76,5.25 L19.81,5.25 L19.06,11.01 L17.83,11.01 Z M32.92,21.42 C32.7399991,21.7400016 32.5000015,22.0799982 32.2,22.44 C31.8999985,22.8000018 31.5800017,23.1299985 31.24,23.43 C30.8999983,23.7300015 30.5500018,23.9749991 30.19,24.165 C29.8299982,24.355001 29.5100014,24.45 29.23,24.45 C29.0699992,24.45 28.8750011,24.4200003 28.645,24.36 C28.4149988,24.2999997 28.1900011,24.2250004 27.97,24.135 C27.7499989,24.0449995 27.5600008,23.9450005 27.4,23.835 C27.2399992,23.7249994 27.16,23.6100006 27.16,23.49 C27.16,23.289999 27.2099995,22.9750022 27.31,22.545 C27.4100005,22.1149979 27.5399992,21.6300027 27.7,21.09 C27.8600008,20.5499973 28.0299991,19.985003 28.21,19.395 C28.3900009,18.8049971 28.5599992,18.2500026 28.72,17.73 C28.8600007,17.2699977 28.9999993,16.8150022 29.14,16.365 C29.2800007,15.9149977 29.4099994,15.490002 29.53,15.09 C29.6500006,14.689998 29.7449996,14.3350016 29.815,14.025 C29.8850003,13.7149985 29.92,13.4700009 29.92,13.29 C29.92,12.9499983 29.7700015,12.6450014 29.47,12.375 C29.1699985,12.1049986 28.8400018,11.97 28.48,11.97 C28.2599989,11.97 27.9650019,12.1799979 27.595,12.6 C27.2249981,13.0200021 26.8000024,13.6049962 26.32,14.355 C25.8399976,15.1050037 25.3150028,15.9999948 24.745,17.04 C24.1749971,18.0800052 23.5800031,19.2199938 22.96,20.46 L22.3,24.15 L20.08,24 L21.13,19.59 L23.86,6.3 C23.9200003,5.9599983 23.850001,5.7600003 23.65,5.7 L21.58,5.04 L21.67,4.29 L26.56,3.09 L24.88,10.11 L22.87,18.75 L23.14,18.75 C24.0600046,16.8099903 24.8999962,15.1950065 25.66,13.905 C26.4200038,12.6149936 27.0599974,11.7000027 27.58,11.16 C28.2400033,10.4799966 28.9299964,10.14 29.65,10.14 C29.9300014,10.14 30.1999987,10.1949995 30.46,10.305 C30.7200013,10.4150005 30.9599989,10.5599991 31.18,10.74 C31.4000011,10.9200009 31.5749993,11.1399987 31.705,11.4 C31.8350006,11.6600013 31.9,11.9399985 31.9,12.24 C31.9,12.4800012 31.8650003,12.799998 31.795,13.2 C31.7249997,13.600002 31.6300006,14.0399976 31.51,14.52 C31.3899994,15.0000024 31.2550007,15.5099973 31.105,16.05 C30.9549992,16.5900027 30.8000008,17.1299973 30.64,17.67 C30.3599986,18.6300048 30.0850013,19.5599955 29.815,20.46 C29.5449986,21.3600045 29.3300008,22.0799973 29.17,22.62 L30.04,22.89 L32.44,20.88 L32.92,21.42 Z M37.18,18.78 C37.1599999,18.8800005 37.15,18.9899994 37.15,19.11 L37.15,19.44 C37.15,20.5600056 37.4249973,21.4099971 37.975,21.99 C38.5250027,22.5700029 39.1499965,22.86 39.85,22.86 C40.2900022,22.86 40.809997,22.6850017 41.41,22.335 C42.010003,21.9849983 42.6899962,21.5200029 43.45,20.94 L43.87,21.48 C43.1299963,22.3400043 42.365004,23.0499972 41.575,23.61 C40.7849961,24.1700028 39.9400045,24.45 39.04,24.45 C38.4799972,24.45 37.9550024,24.3300012 37.465,24.09 C36.9749975,23.8499988 36.5500018,23.5250021 36.19,23.115 C35.8299982,22.7049979 35.550001,22.2150028 35.35,21.645 C35.149999,21.0749972 35.05,20.4600033 35.05,19.8 C35.05,18.599994 35.244998,17.4200058 35.635,16.26 C36.0250019,15.0999942 36.5449967,14.0650046 37.195,13.155 C37.8450032,12.2449954 38.5849958,11.5150028 39.415,10.965 C40.2450041,10.4149972 41.1099955,10.14 42.01,10.14 C42.4900024,10.14 42.924998,10.2149993 43.315,10.365 C43.7050019,10.5150007 44.0349986,10.7099988 44.305,10.95 C44.5750013,11.1900012 44.7849992,11.4699984 44.935,11.79 C45.0850007,12.1100016 45.16,12.4499982 45.16,12.81 C45.16,13.2900024 45.0350013,13.7199981 44.785,14.1 C44.5349987,14.4800019 44.105003,14.8799979 43.495,15.3 C42.884997,15.7200021 42.0700051,16.1999973 41.05,16.74 C40.0299949,17.2800027 38.7400078,17.9599959 37.18,18.78 L37.18,18.78 Z M37.27,17.91 C38.470006,17.2699968 39.4549961,16.7150023 40.225,16.245 C40.9950038,15.7749977 41.5999978,15.3500019 42.04,14.97 C42.4800022,14.5899981 42.7799992,14.2350017 42.94,13.905 C43.1000008,13.5749984 43.18,13.2200019 43.18,12.84 C43.18,12.639999 43.1000008,12.4550008 42.94,12.285 C42.7799992,12.1149992 42.5800012,11.9650007 42.34,11.835 C42.0999988,11.7049994 41.8550013,11.6050004 41.605,11.535 C41.3549987,11.4649996 41.1400009,11.43 40.96,11.43 C40.6399984,11.43 40.3700011,11.4849995 40.15,11.595 C39.9299989,11.7050005 39.7400008,11.8399992 39.58,12 C39.1999981,12.400002 38.7800023,13.1199948 38.32,14.16 C37.8599977,15.2000052 37.4900014,16.4399928 37.21,17.88 L37.27,17.91 Z" id="The" fill="#FFFFFF"></path>
            <path d="M30.568,76.52 C35.052,74.868 37.53,71.21 37.53,63.894 L37.53,51.74 C37.53,41.474 32.456,36.4 22.19,36.4 L1.776,36.4 L1.776,119 L22.426,119 C32.692,119 37.766,113.926 37.766,103.66 L37.766,88.438 C37.766,81.712 35.406,78.172 30.568,76.52 L30.568,76.52 Z M25.022,52.212 L25.022,66.372 C25.022,69.794 23.37,71.564 19.83,71.564 L14.284,71.564 L14.284,47.492 L20.302,47.492 C23.488,47.492 25.022,49.026 25.022,52.212 L25.022,52.212 Z M14.284,82.302 L20.066,82.302 C23.606,82.302 25.258,83.954 25.258,87.494 L25.258,103.188 C25.258,106.374 23.724,107.908 20.538,107.908 L14.284,107.908 L14.284,82.302 Z M44.846,36.4 L44.846,119 L71.396,119 L71.396,107.554 L57.472,107.554 L57.472,36.4 L44.846,36.4 Z M114.348,104.368 L114.348,51.032 C114.348,40.766 109.274,35.692 99.008,35.692 L92.282,35.692 C82.016,35.692 76.942,40.766 76.942,51.032 L76.942,104.368 C76.942,114.634 82.016,119.708 92.282,119.708 L99.008,119.708 C109.274,119.708 114.348,114.634 114.348,104.368 L114.348,104.368 Z M101.722,51.622 L101.722,103.778 C101.722,107.082 100.188,108.616 97.002,108.616 L94.406,108.616 C91.102,108.616 89.568,107.082 89.568,103.778 L89.568,51.622 C89.568,48.318 91.102,46.784 94.406,46.784 L97.002,46.784 C100.188,46.784 101.722,48.318 101.722,51.622 L101.722,51.622 Z M146.562,84.78 L146.562,103.778 C146.562,107.082 145.028,108.616 141.724,108.616 L138.892,108.616 C135.588,108.616 134.054,107.082 134.054,103.778 L134.054,51.622 C134.054,48.318 135.588,46.784 138.892,46.784 L141.488,46.784 C144.674,46.784 146.208,48.318 146.208,51.622 L146.208,64.248 L158.598,64.248 L158.598,50.914 C158.598,40.766 153.642,35.692 143.376,35.692 L136.768,35.692 C126.502,35.692 121.428,40.766 121.428,51.032 L121.428,104.368 C121.428,114.634 126.502,119.708 136.768,119.708 L143.494,119.708 C153.76,119.708 158.834,114.634 158.834,104.368 L158.834,73.924 L139.954,73.924 L139.954,84.78 L146.562,84.78 Z" id="BLOG" fill="#FFFFFF"></path>
            <g id="Page-1" transform="translate(58.000000, 4.000000)" fill="#FFDC00">
                <polygon id="Fill-1" points="0 21.4179922 3.29 21.4179922 3.29 0.65732549 0 0.65732549"></polygon>
                <polygon id="Fill-2" points="22.998913 0.657152941 18.975 11.5648392 14.9228261 0.657152941 11.9558696 0.657152941 11.9558696 21.418251 15.2428261 21.418251 15.2428261 8.62244706 18.0332609 16.9880549 19.8558696 16.9880549 22.7041304 8.47621176 22.7041304 21.418251 25.9902174 21.418251 25.9902174 0.657152941"></polygon>
                <g id="Group-12" transform="translate(34.347826, 0.074973)">
                    <path d="M7.66134783,6.9120549 C7.66134783,5.89919216 7.56265217,5.15895686 7.36656522,4.69221176 C7.07221739,3.91315294 6.49526087,3.52362353 5.63352174,3.52362353 L3.60569565,3.52362353 L3.60569565,10.2991922 L5.63352174,10.2991922 C6.49526087,10.2991922 7.07221739,9.90923137 7.36656522,9.13060392 C7.56265217,8.66385882 7.66134783,7.92448627 7.66134783,6.9120549 M10.9487391,6.88185882 C10.9487391,9.04044706 10.5483043,10.6240157 9.747,11.6360157 C8.90134783,12.7040941 7.51395652,13.237702 5.57265217,13.237702 L3.60569565,13.237702 L3.60569565,21.3431922 L0.315695652,21.3431922 L0.315695652,0.582094118 L5.57265217,0.582094118 C7.45352174,0.582094118 8.81786957,1.08766275 9.67004348,2.09966275 C10.5222174,3.11036863 10.9487391,4.70472157 10.9487391,6.88185882" id="Fill-3"></path>
                    <polygon id="Fill-5" points="27.7258696 21.3432353 18.9415217 21.3432353 18.9415217 0.582137255 27.7258696 0.582137255 27.7258696 3.52323529 22.2315217 3.52323529 22.2315217 9.42613725 26.9602174 9.42613725 26.9602174 12.3672353 22.2315217 12.3672353 22.2315217 18.3999804 27.7258696 18.3999804"></polygon>
                    <path d="M43.0617391,6.70693725 C43.0617391,5.75360392 42.9621739,5.04183922 42.7669565,4.57423137 C42.4534783,3.87325098 41.876087,3.52340784 41.033913,3.52340784 L39.006087,3.52340784 L39.006087,9.88874118 L41.033913,9.88874118 C41.876087,9.88874118 42.4534783,9.53760392 42.7669565,8.83662353 C42.9621739,8.36987843 43.0617391,7.66070196 43.0617391,6.70693725 L43.0617391,6.70693725 Z M47.0247826,21.3434078 L43.5873913,21.3434078 L40.8578261,12.8311333 L39.006087,12.8311333 L39.006087,21.3434078 L35.716087,21.3434078 L35.716087,0.582309804 L41.0052174,0.582309804 C42.9017391,0.582309804 44.2695652,1.06501569 45.1021739,2.0265451 C45.9352174,2.98850588 46.3491304,4.5470549 46.3491304,6.70693725 C46.3491304,9.44701569 45.5352174,11.2544667 43.9108696,12.1288588 L47.0247826,21.3434078 Z" id="Fill-7"></path>
                    <g id="Group-11" transform="translate(53.913043, 0.000000)">
                        <path d="M8.30969565,10.9620824 C8.30969565,7.13451373 8.07578261,4.84133725 7.60491304,4.08298431 C7.27143478,3.55714118 6.74273913,3.29616078 6.01621739,3.29616078 C5.30795652,3.29616078 4.78882609,3.55714118 4.45926087,4.08298431 C3.96578261,4.86031765 3.72186957,7.15521961 3.72186957,10.9620824 C3.72186957,14.7702392 3.96578261,17.0651412 4.45926087,17.8437686 C4.78882609,18.3648667 5.30795652,18.6288667 6.01621739,18.6288667 C6.74273913,18.6288667 7.27143478,18.3648667 7.60491304,17.8437686 C8.07578261,17.0836902 8.30969565,14.7892196 8.30969565,10.9620824 M11.5996957,10.9620824 C11.5996957,13.5460039 11.5423043,15.3137686 11.4236087,16.2675333 C11.2283913,17.8597294 10.7796957,19.0451412 10.0683913,19.820749 C9.0336087,20.9871804 7.67882609,21.5686706 6.01621739,21.5686706 C4.35317391,21.5686706 2.99795652,20.9871804 1.96013043,19.820749 C1.25491304,19.0451412 0.803608696,17.8597294 0.607956522,16.2675333 C0.489695652,15.3137686 0.431869565,13.5460039 0.431869565,10.9620824 C0.431869565,8.37902353 0.489695652,6.6116902 0.607956522,5.65835686 C0.803608696,4.06572941 1.25491304,2.88161176 1.96013043,2.1047098 C2.99795652,0.937847059 4.35317391,0.356356863 6.01621739,0.356356863 C7.67882609,0.356356863 9.0336087,0.937847059 10.0683913,2.1047098 C10.7796957,2.88161176 11.2283913,4.06572941 11.4236087,5.65835686 C11.5423043,6.6116902 11.5996957,8.37902353 11.5996957,10.9620824" id="Fill-9"></path>
                    </g>
                </g>
            </g>
        </g>
    </g>
</svg>