<svg id="Layer_1" xmlns="http://www.w3.org/2000/svg" viewBox="0 0 100 125" width="45" height="45"><style>.st0{fill:#FFFFFF;}</style><path class="st0" d="M92.8 87.7L68.2 63c4.7-6 7.6-13.5 7.6-21.7C75.8 22 60.1 6.4 40.9 6.4s-35 15.7-35 34.9 15.7 34.9 34.9 34.9c8.2 0 15.7-2.8 21.7-7.6l24.7 24.7c.8.8 1.8 1.2 2.8 1.2s2-.4 2.8-1.2c1.6-1.5 1.6-4.1 0-5.6zM13.9 41.3c0-14.9 12.1-26.9 26.9-26.9s26.9 12.1 26.9 26.9-12 27-26.9 27-26.9-12.1-26.9-27z"/><path class="st0" d="M40.8 19.9c-11.8 0-21.4 9.6-21.4 21.4 0 2.2 1.8 4 4 4s4-1.8 4-4c0-7.4 6-13.4 13.4-13.4 2.2 0 4-1.8 4-4s-1.8-4-4-4z"/></svg>
